<?xml version="1.0" standalone="no"?>
<!DOCTYPE svg PUBLIC "-//W3C//DTD SVG 20010904//EN"
 "http://www.w3.org/TR/2001/REC-SVG-20010904/DTD/svg10.dtd">
<svg version="1.0" xmlns="http://www.w3.org/2000/svg"
 width="900.000000pt" height="660.000000pt" viewBox="0 0 900.000000 660.000000"
 preserveAspectRatio="xMidYMid meet">

<g transform="translate(0.000000,660.000000) scale(0.100000,-0.100000)"
fill="#000000" stroke="none">
<path d="M2265 6568 c-55 -32 -90 -101 -80 -160 10 -59 73 -123 133 -133 115
-19 217 114 167 219 -40 85 -142 119 -220 74z"/>
<path d="M2495 6369 c-4 -11 -20 -35 -36 -54 l-30 -33 28 -20 c141 -99 463
-298 467 -289 2 7 4 -1 4 -18 0 -16 -2 -24 -5 -17 -6 15 -93 76 -99 69 -3 -3
-104 -1153 -104 -1190 0 -17 53 35 375 373 181 190 334 347 340 349 12 4 -32
-43 -420 -449 -161 -169 -222 -235 -205 -224 53 37 621 468 626 475 3 5 7 67
10 138 l5 129 -126 81 c-69 44 -127 81 -130 81 -2 0 -6 -24 -8 -52 -2 -29 -4
72 -5 225 l-2 277 -65 0 -65 0 -2 -277 c-1 -153 -4 -253 -7 -222 -5 48 -11 60
-44 89 -38 33 -67 77 -67 102 0 7 10 -8 23 -32 21 -42 71 -89 82 -78 3 3 4 76
3 163 l-3 158 -34 -29 c-19 -15 -42 -46 -52 -69 -10 -22 -19 -33 -19 -25 0 8
9 30 21 49 11 18 17 37 12 41 -8 7 -424 279 -450 293 -7 4 -14 -1 -18 -14z"/>
<path d="M3025 6316 c-52 -24 -128 -97 -140 -135 -4 -13 -5 -24 -3 -25 1 -2
24 -17 49 -34 l45 -30 32 20 c29 18 32 25 32 69 l0 49 75 0 75 0 0 -53 c0 -47
3 -55 26 -67 26 -15 74 -86 74 -111 0 -8 -9 4 -19 26 -19 41 -67 93 -76 83 -3
-3 -4 -74 -3 -158 l3 -152 29 23 c16 12 37 41 47 63 12 27 19 34 19 21 0 -17
73 -72 159 -120 23 -13 9 244 -17 315 -45 127 -109 204 -190 228 -66 20 -160
15 -217 -12z m272 -373 c-3 -10 -5 -4 -5 12 0 17 2 24 5 18 2 -7 2 -21 0 -30z"/>
<path d="M3959 5969 c-8 -17 -7 -31 6 -64 23 -61 84 -152 136 -205 72 -72 174
-200 335 -419 82 -113 152 -209 156 -214 9 -15 70 13 64 29 -3 7 -83 120 -179
251 -95 131 -217 305 -270 386 -96 147 -191 257 -221 257 -8 0 -20 -9 -27 -21z"/>
<path d="M4133 5958 c-18 -13 -33 -27 -33 -31 0 -5 44 -67 97 -137 l97 -129
31 24 c16 13 29 30 29 38 -1 11 -180 257 -187 257 -1 0 -17 -10 -34 -22z"/>
<path d="M3265 5853 c-10 -14 -29 -36 -43 -48 l-26 -22 90 -58 c49 -32 112
-73 140 -91 l51 -33 31 43 c17 23 32 48 34 54 2 8 -142 109 -248 175 -7 4 -19
-4 -29 -20z"/>
<path d="M3912 5827 c-17 -12 -32 -26 -32 -31 0 -5 51 -75 112 -157 l113 -148
29 23 c17 12 31 27 33 32 2 7 -187 268 -215 296 -4 4 -22 -2 -40 -15z"/>
<path d="M3367 5270 c-311 -234 -563 -418 -569 -414 -6 4 -8 3 -5 -3 5 -7
-467 -376 -556 -435 -11 -7 111 -178 127 -178 5 0 19 8 30 18 12 11 275 210
586 444 984 740 1075 810 1074 823 -1 14 -113 165 -123 165 -4 0 -258 -189
-564 -420z"/>
<path d="M3568 4997 c-191 -144 -347 -267 -347 -272 -1 -6 11 -25 27 -43 l27
-32 340 256 c187 141 346 262 354 269 12 12 10 19 -13 49 -15 20 -30 36 -34
35 -4 0 -163 -119 -354 -262z"/>
<path d="M3518 5089 c-157 -119 -153 -113 -111 -167 l18 -23 148 112 c81 61
147 114 147 118 0 3 -13 21 -28 39 l-27 33 -147 -112z"/>
<path d="M3628 4902 c-158 -120 -287 -220 -287 -223 -1 -6 157 -219 162 -219
3 0 649 350 654 354 4 3 -228 306 -235 305 -4 -1 -136 -98 -294 -217z"/>
<path d="M3705 4557 c-550 -299 -1185 -644 -1412 -767 l-412 -224 21 -40 c11
-23 21 -42 23 -44 1 -1 121 62 266 141 2010 1091 2527 1373 2547 1390 12 11
22 28 22 37 0 18 -30 50 -46 50 -5 0 -460 -244 -1009 -543z"/>
<path d="M2440 4923 c-47 -36 -94 -71 -104 -79 -18 -12 -15 -18 54 -111 40
-54 76 -102 81 -107 4 -5 56 27 118 73 l110 82 -77 104 c-42 57 -81 104 -87
104 -5 0 -48 -30 -95 -66z"/>
<path d="M4698 4974 l-28 -15 49 -67 c190 -260 248 -336 256 -339 6 -1 21 6
34 16 l24 19 -147 201 c-81 110 -151 201 -154 201 -4 -1 -19 -7 -34 -16z"/>
<path d="M4184 4696 c-21 -13 -166 -92 -321 -176 -156 -84 -283 -156 -283
-159 0 -17 469 -626 481 -625 8 1 141 97 297 214 187 141 281 218 278 227 -6
16 -394 531 -405 538 -4 2 -25 -6 -47 -19z"/>
<path d="M2773 4394 l-353 -266 31 -39 30 -38 347 261 c191 144 351 264 356
269 8 7 -40 79 -53 79 -3 0 -165 -120 -358 -266z"/>
<path d="M4982 4519 c-73 -55 -132 -104 -130 -108 10 -27 305 -410 314 -408
16 3 263 191 263 200 1 7 -307 417 -312 417 -1 0 -62 -46 -135 -101z"/>
<path d="M2723 4492 c-78 -59 -142 -111 -143 -115 0 -5 12 -24 26 -42 l26 -34
141 106 c78 58 145 109 149 112 8 7 -40 82 -51 80 -3 0 -70 -48 -148 -107z"/>
<path d="M2840 4304 c-157 -118 -287 -219 -288 -225 -2 -5 11 -28 29 -52 18
-23 34 -44 35 -46 4 -5 654 349 654 356 0 9 -131 183 -139 183 -3 0 -134 -97
-291 -216z"/>
<path d="M5515 4240 c-110 -83 -208 -162 -217 -178 -10 -15 -18 -21 -18 -14 0
9 -10 6 -32 -9 -58 -41 -1503 -1121 -1516 -1133 -10 -10 -1 -27 43 -87 31 -40
60 -75 65 -77 4 -2 265 162 580 363 315 202 590 373 612 381 88 31 231 5 277
-49 7 -10 19 -17 25 -17 7 0 97 52 202 116 104 63 206 125 227 137 20 11 37
23 37 27 0 3 -20 12 -45 19 -65 19 -175 125 -175 167 0 5 10 -7 21 -26 74
-123 218 -179 350 -135 73 25 161 112 183 181 8 27 15 43 15 37 1 -15 266 -19
275 -4 3 4 3 38 -1 75 l-6 66 -132 0 -133 0 3 -62 4 -63 -9 62 c-24 168 -135
271 -295 274 -40 1 -60 4 -47 7 21 7 19 10 -27 50 -27 23 -53 42 -58 42 -4 0
-98 -68 -208 -150z m225 29 c-82 -37 -148 -117 -169 -206 -5 -23 -9 -29 -10
-16 -1 18 -8 23 -38 26 l-38 4 40 1 c38 2 41 5 59 49 30 71 133 162 186 162 8
0 -5 -9 -30 -20z m-163 -364 c-1 0 -67 2 -147 5 l-145 6 138 2 137 2 1 28 c1
24 2 24 9 -8 5 -19 8 -35 7 -35z"/>
<path d="M1462 4304 c-56 -42 -102 -80 -102 -86 0 -5 27 -45 61 -89 l61 -80
31 24 c18 13 67 50 109 81 47 35 75 63 71 70 -19 32 -116 156 -122 156 -4 0
-53 -34 -109 -76z"/>
<path d="M1460 4018 c-212 -159 -394 -296 -404 -304 -19 -13 -18 -14 9 -53 44
-65 49 -66 94 -34 22 15 204 152 405 303 l364 274 -31 43 c-17 24 -36 48 -42
53 -7 6 -146 -93 -395 -282z"/>
<path d="M1593 3937 c-221 -166 -402 -306 -403 -310 0 -12 81 -117 91 -117 7
0 759 562 802 600 5 4 -78 130 -86 130 -1 0 -183 -136 -404 -303z"/>
<path d="M3018 4062 l-327 -178 271 -359 c148 -198 278 -368 288 -379 17 -18
26 -12 301 195 156 118 288 217 293 221 7 5 -486 679 -497 678 -1 0 -149 -80
-329 -178z"/>
<path d="M4665 4171 c-14 -13 -588 -447 -682 -515 -1 -1 13 -18 30 -39 l32
-37 345 261 c190 143 349 264 354 269 8 8 -39 80 -53 80 -4 0 -15 -9 -26 -19z"/>
<path d="M1880 3943 c-398 -304 -415 -317 -400 -320 8 -2 98 -14 200 -27 l185
-24 195 105 c107 59 265 145 350 192 175 97 175 100 -2 82 l-101 -10 -96 76
c-53 42 -100 79 -106 83 -5 4 -107 -67 -225 -157z"/>
<path d="M4418 3849 l-148 -111 28 -38 27 -38 30 22 c17 12 83 62 148 111 64
48 117 90 117 94 0 4 -12 21 -27 39 l-28 33 -147 -112z"/>
<path d="M3771 3229 c-524 -396 -955 -718 -957 -716 -3 2 155 125 351 272 195
148 355 271 355 274 0 4 -12 21 -27 39 l-28 32 -109 -82 -109 -82 -24 29 c-13
17 -50 68 -82 115 -335 489 -505 725 -520 724 -10 0 -158 -78 -330 -173 -303
-168 -312 -173 -298 -194 7 -12 53 -86 102 -165 l88 -143 28 43 c16 24 45 55
65 70 36 27 101 54 110 46 2 -3 -15 -10 -37 -17 -62 -19 -143 -104 -163 -171
-20 -67 -20 -103 -1 -167 19 -65 85 -139 150 -169 58 -27 147 -31 208 -10 81
30 149 105 173 194 8 31 13 38 13 22 1 -41 -43 -122 -87 -162 -57 -51 -96 -69
-164 -75 -56 -6 -58 -7 -58 -34 0 -31 -18 -24 203 -83 l118 -32 25 -44 c40
-71 168 -240 179 -237 7 1 1829 1368 1923 1443 7 5 -123 173 -133 173 -5 -1
-439 -325 -964 -720z m-1293 94 c-16 -2 -40 -2 -55 0 -16 2 -3 4 27 4 30 0 43
-2 28 -4z m85 -16 c64 -27 157 -131 157 -176 0 -8 -12 8 -26 37 -30 60 -68 96
-139 128 -53 25 -47 33 8 11z m-9 -120 c35 -27 66 -73 66 -99 0 -7 -10 6 -21
30 -30 60 -70 86 -144 90 -50 3 -65 0 -94 -20 -49 -33 -72 -69 -78 -121 -10
-85 33 -154 113 -182 22 -8 30 -14 20 -15 -38 0 -103 48 -125 93 -45 92 -17
181 74 239 46 29 141 21 189 -15z m173 -109 c-3 -7 -5 -2 -5 12 0 14 2 19 5
13 2 -7 2 -19 0 -25z m-100 -45 c-3 -10 -5 -4 -5 12 0 17 2 24 5 18 2 -7 2
-21 0 -30z m-12 -52 c-16 -50 -89 -112 -132 -111 -10 1 -1 7 20 15 49 17 84
49 99 91 13 36 24 39 13 5z"/>
<path d="M5600 3560 c-80 -50 -145 -94 -145 -99 0 -14 189 -290 199 -291 13 0
266 191 266 202 0 8 -169 278 -173 278 -1 0 -67 -41 -147 -90z"/>
<path d="M3542 3323 l-352 -266 27 -36 c14 -20 27 -37 29 -39 1 -3 680 504
708 529 8 7 -40 80 -53 78 -3 0 -165 -120 -359 -266z"/>
<path d="M6085 3463 c-16 -9 -137 -95 -268 -191 -264 -194 -292 -223 -317
-330 -7 -30 4 -102 16 -102 3 0 163 118 357 263 194 144 371 276 394 292 24
17 43 34 43 38 0 4 -19 17 -42 27 -53 24 -141 25 -183 3z"/>
<path d="M5924 3129 c-214 -160 -391 -293 -392 -294 -2 -2 65 -95 149 -207
109 -145 1144 -1519 1164 -1546 5 -7 780 585 780 597 0 13 -1295 1740 -1306
1741 -3 0 -180 -131 -395 -291z"/>
<path d="M4785 3329 c-60 -39 -114 -75 -119 -80 -24 -22 65 -79 124 -79 63 0
134 60 146 125 7 38 -12 105 -29 105 -7 0 -61 -32 -122 -71z"/>
<path d="M3640 3263 c-69 -52 -134 -101 -144 -109 -19 -13 -19 -14 5 -48 13
-20 28 -36 33 -36 8 0 259 183 290 211 8 7 -40 80 -53 78 -3 0 -62 -43 -131
-96z"/>
<path d="M3600 2808 c-57 -43 -106 -81 -108 -83 -6 -5 109 -155 120 -155 4 0
56 35 113 79 l104 78 -55 74 c-30 41 -58 77 -62 80 -4 4 -54 -29 -112 -73z"/>
<path d="M3894 2757 c-51 -34 -105 -72 -120 -84 l-29 -21 20 -22 c25 -28 75
-50 112 -50 69 1 143 76 143 146 0 34 -18 94 -28 93 -4 0 -48 -28 -98 -62z"/>
<path d="M7253 1367 c-216 -161 -392 -295 -393 -298 0 -14 101 -49 140 -49 55
0 100 20 173 78 34 27 144 108 245 181 155 113 187 141 212 185 42 72 54 119
40 162 -6 19 -15 34 -18 34 -4 -1 -183 -132 -399 -293z"/>
<path d="M7320 1196 c-69 -51 -125 -98 -125 -104 0 -9 132 -171 568 -699 143
-173 187 -216 204 -200 3 3 -26 86 -65 184 -38 98 -82 212 -97 254 l-28 76
-61 12 c-112 23 -197 84 -230 163 -23 54 -20 162 4 217 11 24 20 48 20 55 0
12 -57 136 -62 135 -2 0 -59 -42 -128 -93z"/>
</g>
</svg>
